<?xml version="1.0" standalone="no"?>
<!DOCTYPE svg PUBLIC "-//W3C//DTD SVG 20010904//EN"
        "http://www.w3.org/TR/2001/REC-SVG-20010904/DTD/svg10.dtd">
<svg version="1.0" xmlns="http://www.w3.org/2000/svg"
     width="460.000000pt" height="460.000000pt" viewBox="0 0 460.000000 460.000000"
     preserveAspectRatio="xMidYMid meet">

    <g transform="translate(0.000000,460.000000) scale(0.100000,-0.100000)"
       fill="#000000" stroke="none">
        <path d="M1708 3625 c-43 -7 -117 -23 -164 -36 -72 -19 -90 -28 -115 -58 -36
-44 -90 -146 -122 -232 -14 -36 -39 -90 -56 -121 l-32 -56 -77 -1 c-148 -1
-248 -27 -305 -80 -54 -50 -69 -83 -63 -137 5 -52 11 -60 86 -132 59 -56 113
-85 225 -121 39 -12 76 -24 83 -26 9 -3 10 -9 2 -22 -21 -38 -61 -138 -81
-205 l-20 -70 -35 7 c-91 17 -242 -75 -319 -193 -58 -92 -92 -162 -117 -240
-11 -37 -23 -71 -28 -77 -16 -22 -60 -232 -60 -290 0 -52 28 -195 42 -212 5
-6 11 -55 14 -108 11 -246 90 -400 227 -445 69 -23 146 -18 206 12 54 28 110
107 122 174 5 26 11 49 12 51 6 5 164 -74 171 -86 4 -5 31 -24 61 -41 l55 -31
0 -114 c0 -141 20 -250 57 -310 15 -26 33 -55 39 -66 37 -66 140 -119 232
-119 44 0 109 31 144 67 33 35 84 128 93 170 6 32 8 33 48 27 23 -4 47 -10 52
-13 11 -8 1040 -8 1064 0 9 2 16 -4 19 -16 25 -135 169 -241 291 -214 62 14
132 62 168 116 47 72 64 141 62 260 -1 97 0 105 25 137 14 19 26 38 26 41 0 4
13 25 28 48 63 92 157 343 168 447 3 30 9 73 13 96 8 42 6 193 -3 232 -4 20
-46 143 -62 186 -4 11 -1 16 10 16 31 0 154 69 174 97 50 73 55 155 13 228
-37 65 -82 87 -305 150 -226 63 -246 73 -267 127 -22 58 -55 75 -120 60 -54
-13 -95 -1 -188 55 -60 36 -102 40 -128 11 -23 -25 -12 -93 21 -127 33 -34 33
-40 -1 -36 -25 2 -78 -10 -126 -30 -16 -7 -18 -4 -13 26 7 44 -8 97 -40 144
-22 33 -23 39 -11 54 38 43 46 73 52 194 l4 88 -63 31 -63 31 5 151 c3 100 9
164 19 191 9 22 18 58 20 80 9 75 -56 127 -212 170 -246 67 -316 84 -400 94
-121 15 -461 12 -557 -4z m557 -39 c80 -13 416 -100 487 -128 39 -14 78 -57
78 -83 0 -12 -7 -39 -15 -58 -8 -20 -15 -48 -15 -63 l0 -27 -27 28 c-63 62
-185 113 -368 154 -220 49 -532 73 -685 52 -107 -14 -289 -47 -314 -57 -17 -7
-17 -6 -1 25 69 135 177 168 565 170 131 0 238 -4 295 -13z m-70 -190 c325
-58 453 -102 552 -186 17 -15 37 -30 44 -32 10 -3 10 -26 2 -111 -5 -59 -12
-109 -14 -111 -2 -2 -40 0 -84 4 -113 12 -293 12 -316 0 -10 -6 -24 -30 -30
-53 l-10 -43 -79 9 c-62 7 -90 5 -131 -6 l-51 -15 6 42 c11 71 -8 83 -233 146
-89 26 -122 30 -225 30 -67 0 -126 4 -132 8 -6 4 -30 49 -53 100 -35 80 -40
96 -29 110 11 15 11 15 -3 5 -13 -11 -18 -7 -32 21 l-16 34 67 17 c174 42 291
54 487 50 113 -2 226 -10 280 -19z m-800 -203 c23 -54 41 -100 39 -101 -3 -4
-155 26 -160 31 -2 2 13 42 34 89 20 48 38 85 40 83 3 -2 24 -48 47 -102z m5
-130 c105 -17 363 -91 449 -129 112 -50 144 -89 154 -189 5 -48 2 -68 -14
-102 -36 -74 -117 -87 -355 -57 l-51 6 -6 -63 c-14 -143 -74 -310 -163 -450
-90 -143 -196 -172 -285 -79 -39 41 -59 100 -59 172 0 87 63 298 123 411 16
31 28 59 26 61 -2 2 -51 16 -109 30 -199 49 -289 116 -298 218 -3 43 1 59 20
88 66 100 280 131 568 83z m1467 -259 c-2 -2 -64 -31 -137 -64 -74 -33 -153
-72 -176 -85 -53 -31 -68 -31 -88 0 -16 24 -16 26 1 31 48 14 337 134 368 151
17 10 21 8 28 -9 4 -12 6 -22 4 -24z m-626 -39 c76 -40 88 -135 39 -298 -43
-145 -60 -236 -60 -330 0 -88 25 -183 56 -218 15 -16 19 -17 43 -4 40 21 121
113 121 139 0 5 -22 6 -52 1 -98 -14 -103 -13 -106 17 -3 23 3 30 37 47 46 24
61 55 37 79 -14 15 -19 14 -51 -1 l-35 -17 0 28 c1 38 34 185 59 255 21 60 31
213 16 238 -5 8 -4 10 3 5 7 -4 12 -14 12 -21 0 -25 37 -76 73 -101 19 -13 62
-31 95 -40 59 -16 59 -16 86 7 58 51 134 61 203 28 53 -26 89 -68 104 -122 15
-54 -13 -188 -81 -398 -85 -259 -143 -347 -299 -452 -163 -109 -379 -101 -507
19 -85 82 -152 218 -173 356 l-10 63 4 -67 c5 -86 -13 -91 -51 -15 -31 62
-122 219 -175 301 -29 46 -36 64 -28 78 5 10 18 18 28 18 44 0 52 71 14 129
l-15 24 93 -5 c91 -4 93 -5 122 -39 41 -48 46 -68 32 -119 -21 -72 -44 -283
-30 -268 3 3 8 37 11 74 7 90 30 203 60 286 26 71 102 223 136 271 45 63 125
85 189 52z m104 -33 c-3 -3 -11 0 -18 7 -9 10 -8 11 6 5 10 -3 15 -9 12 -12z
m898 -274 c61 -28 62 -48 2 -48 -25 0 -45 4 -45 8 0 5 -16 27 -35 49 -44 51
-44 61 -2 34 17 -12 53 -31 80 -43z m-1330 22 c-3 -11 -7 -20 -9 -20 -2 0 -8
9 -14 20 -9 17 -8 20 9 20 14 0 18 -5 14 -20z m1530 -60 c4 -16 0 -20 -21 -19
-15 0 -36 4 -47 8 -19 8 -19 8 0 19 31 18 62 14 68 -8z m62 -60 c149 -33 405
-108 450 -133 50 -28 95 -92 102 -145 11 -84 -48 -174 -132 -202 -42 -14 -100
-7 -182 21 -70 24 -93 24 -93 2 -1 -48 -83 -311 -124 -394 -59 -121 -109 -175
-213 -228 -57 -28 -89 -27 -122 7 -31 30 -51 114 -51 210 0 68 48 252 106 402
25 66 45 123 43 124 -2 2 -29 11 -59 21 -69 22 -134 60 -160 92 -10 13 -22 44
-26 68 -11 79 37 147 124 176 44 14 230 3 337 -21z m-1844 -230 c29 -52 60
-106 69 -120 10 -14 27 -46 38 -73 l21 -47 -42 -21 c-23 -12 -61 -35 -85 -51
-23 -16 -47 -26 -52 -23 -15 9 -12 47 5 69 30 39 16 104 -33 153 -23 23 -33
45 -42 93 -11 59 -10 67 12 111 23 47 23 47 40 26 9 -12 41 -65 69 -117z
m-612 28 c2 -64 15 -107 52 -174 28 -50 29 -52 18 -134 -6 -47 -6 -94 -2 -109
5 -14 6 -40 3 -58 l-5 -32 -65 49 c-239 181 -220 164 -210 198 31 106 163 312
199 312 4 0 9 -24 10 -52z m1907 -33 c18 -14 18 -14 -8 -15 -18 0 -28 5 -28
15 0 19 11 19 36 0z m-1477 -131 c40 -33 39 -45 -1 -33 -84 24 -94 1 -43 -95
l38 -71 -31 33 c-18 17 -41 32 -51 32 -20 0 -33 -29 -21 -51 4 -8 1 -25 -6
-39 l-13 -24 -10 27 c-6 15 -14 39 -17 53 -8 32 -40 50 -60 33 -14 -12 -14
-27 2 -80 3 -11 -3 -18 -16 -22 -21 -5 -22 -3 -22 53 -1 72 1 80 22 80 34 0
92 35 140 84 24 25 47 46 51 46 4 0 21 -12 38 -26z m2292 -175 c13 -46 10 -69
-9 -69 -12 0 -26 17 -42 53 -13 28 -25 55 -28 59 -2 4 14 2 35 -6 25 -9 40
-21 44 -37z m-2214 -61 c-3 -8 -6 -5 -6 6 -1 11 2 17 5 13 3 -3 4 -12 1 -19z
m-96 -96 c-36 -37 -72 -91 -87 -130 -1 -1 -28 14 -60 33 -32 20 -78 41 -101
48 -34 9 -43 16 -43 33 0 21 1 22 29 8 33 -16 74 -6 84 20 5 13 10 12 31 -9
39 -39 86 -29 104 23 9 25 13 27 49 24 l40 -4 -46 -46z m2349 38 c0 -5 -4 -10
-10 -10 -5 0 -10 5 -10 10 0 6 5 10 10 10 6 0 10 -4 10 -10z m28 -159 c9 -5
25 -12 35 -15 20 -6 22 -35 4 -60 -20 -28 -168 -35 -213 -11 -19 10 -34 21
-34 25 0 27 75 56 183 69 4 1 15 -3 25 -8z m-1548 -56 c42 -22 38 -49 -10 -84
-55 -40 -161 -58 -244 -43 -67 13 -81 22 -72 49 20 63 249 118 326 78z m-695
-48 c35 -35 69 -59 101 -70 73 -26 119 -51 116 -62 -4 -14 -105 -10 -144 5
-74 30 -148 108 -148 157 0 35 19 28 75 -30z m-737 20 c6 -7 7 -18 2 -26 -4
-8 -6 -29 -3 -46 4 -25 0 -37 -18 -54 -30 -28 -37 -27 -57 9 -9 16 -22 30 -28
30 -6 0 -17 7 -24 15 -11 14 -8 21 23 50 39 37 85 46 105 22z m1028 -168 c3
-6 1 -16 -5 -22 -9 -9 -14 -8 -21 3 -9 15 -4 30 10 30 5 0 12 -5 16 -11z
m-1000 -70 c13 -14 18 -36 17 -76 0 -49 -4 -60 -28 -81 -20 -17 -35 -22 -54
-17 -39 9 -51 33 -51 100 0 65 12 91 45 97 29 6 51 -1 71 -23z m41 -236 c3
-10 15 -30 25 -45 10 -14 18 -37 18 -50 0 -19 5 -24 27 -23 37 0 42 -28 8 -43
-52 -24 -99 -25 -125 -4 -24 20 -24 22 -9 48 13 21 14 35 7 61 -8 28 -6 39 8
54 21 24 33 24 41 2z m783 -29 c12 -12 12 -18 2 -34 -6 -11 -12 -31 -12 -44 0
-14 -4 -28 -10 -31 -5 -3 -10 -15 -10 -26 0 -12 -7 -19 -20 -19 -18 0 -26 16
-21 43 3 18 -21 47 -39 47 -20 0 -27 25 -12 46 29 42 88 51 122 18z m1661 4
c0 -7 4 -46 8 -86 6 -68 6 -73 -14 -77 -86 -18 -220 -35 -270 -33 -33 1 -111
-4 -174 -11 -63 -6 -126 -9 -140 -6 -14 3 -52 -1 -84 -10 -32 -8 -92 -15 -132
-15 l-75 0 0 69 0 69 48 11 c26 6 79 13 117 17 39 3 88 10 110 16 52 13 221
36 359 49 61 5 112 12 115 14 2 3 33 5 68 5 43 0 63 -4 64 -12z m-1628 -227
c15 -15 24 -75 16 -104 -16 -60 -93 -88 -123 -45 -9 13 -16 43 -16 71 0 64 35
103 83 93 17 -4 35 -10 40 -15z m42 -271 c3 -5 15 -10 26 -10 23 0 36 -27 20
-43 -8 -8 -7 -15 5 -28 32 -35 -39 -94 -85 -70 -18 10 -20 20 -18 86 2 70 3
75 24 75 12 0 25 -4 28 -10z"/>
        <path d="M2430 2413 c-32 -11 -130 -117 -130 -140 0 -34 23 -28 88 22 50 40
58 43 67 29 6 -9 18 -26 27 -38 15 -18 19 -19 28 -6 16 24 11 72 -10 108 -19
30 -37 37 -70 25z"/>
        <path d="M1840 2059 c0 -5 5 -7 10 -4 6 3 10 8 10 11 0 2 -4 4 -10 4 -5 0 -10
-5 -10 -11z"/>
        <path d="M3076 921 c-4 -5 -1 -32 5 -61 10 -47 13 -51 37 -48 14 2 27 8 29 15
3 7 -3 10 -15 6 -27 -7 -38 15 -16 32 18 14 18 14 -3 15 -16 0 -23 6 -23 20 0
14 5 18 17 13 11 -4 14 -3 9 5 -9 14 -33 16 -40 3z"/>
        <path d="M3207 913 c-15 -15 -5 -40 27 -65 19 -16 37 -28 40 -28 10 0 36 58
36 80 0 21 -33 29 -45 10 -4 -7 -12 -7 -25 0 -22 12 -25 12 -33 3z m41 -25 c8
-8 15 -8 27 2 12 10 15 10 15 -1 0 -8 -4 -20 -9 -28 -8 -12 -13 -12 -35 3 -14
9 -26 21 -26 26 0 13 13 13 28 -2z"/>
        <path d="M3017 890 c6 -23 -15 -27 -36 -7 -11 10 -12 4 -7 -33 4 -25 12 -49
18 -55 7 -7 9 0 6 22 -3 24 0 33 13 36 11 3 19 -2 23 -16 3 -12 8 -18 12 -14
9 8 -16 87 -27 87 -4 0 -5 -9 -2 -20z"/>
        <path d="M2892 878 c-15 -15 -15 -30 0 -63 12 -27 47 -32 55 -8 3 7 -3 9 -16
6 -15 -4 -22 1 -27 21 -4 16 -1 32 6 41 15 18 -1 20 -18 3z"/>
        <path d="M2611 856 c-7 -8 -14 -29 -17 -48 -7 -40 12 -61 48 -56 19 2 23 10
26 46 4 61 -28 94 -57 58z m43 -22 c11 -29 7 -46 -10 -40 -12 4 -15 2 -10 -9
3 -9 0 -15 -9 -15 -9 0 -15 10 -15 24 0 34 10 56 25 56 7 0 16 -7 19 -16z"/>
        <path d="M2700 848 c0 -60 38 -104 54 -62 10 25 7 72 -5 80 -7 4 -10 -3 -9
-17 4 -42 0 -60 -10 -54 -5 3 -10 16 -10 28 0 12 -5 29 -10 37 -8 12 -10 9
-10 -12z"/>
        <path d="M2810 838 c0 -20 5 -40 10 -43 13 -8 13 45 0 65 -7 11 -10 6 -10 -22z"/>
    </g>
</svg>
